<?plantuml 1.2026.2?><svg xmlns="http://www.w3.org/2000/svg" xmlns:xlink="http://www.w3.org/1999/xlink" contentStyleType="text/css" data-diagram-type="DESCRIPTION" height="886px" preserveAspectRatio="none" style="width:1501px;height:886px;background:#FFFFFF;" version="1.1" viewBox="0 0 1501 886" width="1501px" zoomAndPan="magnify"><title>Announcements &#8212; Component Architecture</title><defs/><g><g class="title" data-source-line="1"><text fill="#000000" font-family="sans-serif" font-size="14" font-weight="bold" lengthAdjust="spacing" textLength="315.6973" x="585.9232" y="23.5352">Announcements &#8212; Component Architecture</text></g><!--cluster api--><g class="cluster" data-qualified-name="api" data-source-line="9" id="ent0003"><path d="M668.5,144.4683 L733.1631,144.4683 A3.75,3.75 0 0 1 735.6631,146.9683 L742.6631,166.9566 L851.5,166.9566 A2.5,2.5 0 0 1 854,169.4566 L854,463.9583 A2.5,2.5 0 0 1 851.5,466.4583 L668.5,466.4583 A2.5,2.5 0 0 1 666,463.9583 L666,146.9683 A2.5,2.5 0 0 1 668.5,144.4683" fill="none" style="stroke:#000000;stroke-width:1.5;"/><line style="stroke:#000000;stroke-width:1.5;" x1="666" x2="742.6631" y1="166.9566" y2="166.9566"/><text fill="#000000" font-family="sans-serif" font-size="14" font-weight="bold" lengthAdjust="spacing" textLength="63.6631" x="670" y="160.0034">API layer</text></g><!--cluster svc--><g class="cluster" data-qualified-name="svc" data-source-line="15" id="ent0007"><path d="M880.5,378.9683 L972.7051,378.9683 A3.75,3.75 0 0 1 975.2051,381.4683 L982.2051,401.4566 L1266.5,401.4566 A2.5,2.5 0 0 1 1269,403.9566 L1269,745.1983 A2.5,2.5 0 0 1 1266.5,747.6983 L880.5,747.6983 A2.5,2.5 0 0 1 878,745.1983 L878,381.4683 A2.5,2.5 0 0 1 880.5,378.9683" fill="none" style="stroke:#000000;stroke-width:1.5;"/><line style="stroke:#000000;stroke-width:1.5;" x1="878" x2="982.2051" y1="401.4566" y2="401.4566"/><text fill="#000000" font-family="sans-serif" font-size="14" font-weight="bold" lengthAdjust="spacing" textLength="91.2051" x="882" y="394.5034">Service layer</text></g><!--cluster repo--><g class="cluster" data-qualified-name="repo" data-source-line="22" id="ent0012"><path d="M8.5,500.4883 L127.3174,500.4883 A3.75,3.75 0 0 1 129.8174,502.9883 L136.8174,522.9766 L460.5,522.9766 A2.5,2.5 0 0 1 463,525.4766 L463,753.4483 A2.5,2.5 0 0 1 460.5,755.9483 L8.5,755.9483 A2.5,2.5 0 0 1 6,753.4483 L6,502.9883 A2.5,2.5 0 0 1 8.5,500.4883" fill="none" style="stroke:#000000;stroke-width:1.5;"/><line style="stroke:#000000;stroke-width:1.5;" x1="6" x2="136.8174" y1="522.9766" y2="522.9766"/><text fill="#000000" font-family="sans-serif" font-size="14" font-weight="bold" lengthAdjust="spacing" textLength="117.8174" x="10" y="516.0234">Repository layer</text></g><!--cluster db--><g class="cluster" data-qualified-name="db" data-source-line="28" id="ent0016"><path d="M489.5,651.9683 L572.7637,651.9683 A3.75,3.75 0 0 1 575.2637,654.4683 L582.2637,674.4566 L654.5,674.4566 A2.5,2.5 0 0 1 657,676.9566 L657,877.3983 A2.5,2.5 0 0 1 654.5,879.8983 L489.5,879.8983 A2.5,2.5 0 0 1 487,877.3983 L487,654.4683 A2.5,2.5 0 0 1 489.5,651.9683" fill="none" style="stroke:#000000;stroke-width:1.5;"/><line style="stroke:#000000;stroke-width:1.5;" x1="487" x2="582.2637" y1="674.4566" y2="674.4566"/><text fill="#000000" font-family="sans-serif" font-size="14" font-weight="bold" lengthAdjust="spacing" textLength="82.2637" x="491" y="667.5034">Persistence</text></g><!--entity app--><g class="entity" data-qualified-name="api.app" data-source-line="10" id="ent0004"><rect fill="#F1F1F1" height="52.9766" rx="2.5" ry="2.5" style="stroke:#181818;stroke-width:0.5;" width="102.9268" x="717.54" y="179.4683"/><text fill="#000000" font-family="sans-serif" font-size="14" lengthAdjust="spacing" textLength="78.8252" x="727.54" y="203.0034">FastAPI app</text><text fill="#000000" font-family="sans-serif" font-size="14" lengthAdjust="spacing" textLength="82.9268" x="727.54" y="219.4917">(create_app)</text></g><!--entity router--><g class="entity" data-qualified-name="api.router" data-source-line="11" id="ent0005"><rect fill="#F1F1F1" height="36.4883" rx="2.5" ry="2.5" style="stroke:#181818;stroke-width:0.5;" width="120.4951" x="708.75" y="292.4483"/><text fill="#000000" font-family="sans-serif" font-size="14" lengthAdjust="spacing" textLength="100.4951" x="718.75" y="315.9834">/api/v1/router</text></g><!--entity auth--><g class="entity" data-qualified-name="api.auth" data-source-line="12" id="ent0006"><rect fill="#F1F1F1" height="36.4883" rx="2.5" ry="2.5" style="stroke:#181818;stroke-width:0.5;" width="156.3428" x="681.83" y="413.9683"/><text fill="#000000" font-family="sans-serif" font-size="14" lengthAdjust="spacing" textLength="136.3428" x="691.83" y="437.5034">require_api_key dep</text></g><!--entity service--><g class="entity" data-qualified-name="svc.service" data-source-line="16" id="ent0008"><rect fill="#F1F1F1" height="36.4883" rx="2.5" ry="2.5" style="stroke:#181818;stroke-width:0.5;" width="170.1104" x="893.94" y="413.9683"/><text fill="#000000" font-family="sans-serif" font-size="14" lengthAdjust="spacing" textLength="150.1104" x="903.94" y="437.5034">AnnouncementService</text></g><!--entity notif_proto--><g class="entity" data-qualified-name="svc.notif_proto" data-source-line="17" id="ent0009"><ellipse cx="979" cy="580.4883" fill="#F1F1F1" rx="8" ry="8" style="stroke:#181818;stroke-width:0.5;"/><text fill="#000000" font-family="sans-serif" font-size="14" lengthAdjust="spacing" textLength="113.6064" x="922.1968" y="611.0234">WebhookNotifier</text><text fill="#000000" font-family="sans-serif" font-size="14" lengthAdjust="spacing" textLength="64.8252" x="922.1968" y="627.5117">(Protocol)</text></g><!--entity http_notif--><g class="entity" data-qualified-name="svc.http_notif" data-source-line="18" id="ent0010"><rect fill="#F1F1F1" height="36.4883" rx="2.5" ry="2.5" style="stroke:#181818;stroke-width:0.5;" width="163.1787" x="894.41" y="695.2083"/><text fill="#000000" font-family="sans-serif" font-size="14" lengthAdjust="spacing" textLength="143.1787" x="904.41" y="718.7434">HttpWebhookNotifier</text></g><!--entity null_notif--><g class="entity" data-qualified-name="svc.null_notif" data-source-line="19" id="ent0011"><rect fill="#F1F1F1" height="36.4883" rx="2.5" ry="2.5" style="stroke:#181818;stroke-width:0.5;" width="160.7314" x="1092.63" y="695.2083"/><text fill="#000000" font-family="sans-serif" font-size="14" lengthAdjust="spacing" textLength="140.7314" x="1102.63" y="718.7434">NullWebhookNotifier</text></g><!--entity repo_proto--><g class="entity" data-qualified-name="repo.repo_proto" data-source-line="23" id="ent0013"><ellipse cx="352" cy="580.4883" fill="#F1F1F1" rx="8" ry="8" style="stroke:#181818;stroke-width:0.5;"/><text fill="#000000" font-family="sans-serif" font-size="14" lengthAdjust="spacing" textLength="174.9043" x="264.5479" y="611.0234">AnnouncementRepository</text><text fill="#000000" font-family="sans-serif" font-size="14" lengthAdjust="spacing" textLength="64.8252" x="264.5479" y="627.5117">(Protocol)</text></g><!--entity sa_repo--><g class="entity" data-qualified-name="repo.sa_repo" data-source-line="24" id="ent0014"><rect fill="#F1F1F1" height="52.9766" rx="2.5" ry="2.5" style="stroke:#181818;stroke-width:0.5;" width="200.9268" x="21.54" y="686.9683"/><text fill="#000000" font-family="sans-serif" font-size="14" lengthAdjust="spacing" textLength="180.9268" x="31.54" y="710.5034">SqlAlchemyAnnouncement</text><text fill="#000000" font-family="sans-serif" font-size="14" lengthAdjust="spacing" textLength="72.126" x="31.54" y="726.9917">Repository</text></g><!--entity mem_repo--><g class="entity" data-qualified-name="repo.mem_repo" data-source-line="25" id="ent0015"><rect fill="#F1F1F1" height="52.9766" rx="2.5" ry="2.5" style="stroke:#181818;stroke-width:0.5;" width="190.0713" x="256.96" y="686.9683"/><text fill="#000000" font-family="sans-serif" font-size="14" lengthAdjust="spacing" textLength="170.0713" x="266.96" y="710.5034">InMemoryAnnouncement</text><text fill="#000000" font-family="sans-serif" font-size="14" lengthAdjust="spacing" textLength="72.126" x="266.96" y="726.9917">Repository</text></g><!--entity pg--><g class="entity" data-qualified-name="db.pg" data-source-line="29" id="ent0017"><path d="M503.45,811.9183 C503.45,801.9183 571.9964,801.9183 571.9964,801.9183 C571.9964,801.9183 640.5428,801.9183 640.5428,811.9183 L640.5428,853.8948 C640.5428,863.8948 571.9964,863.8948 571.9964,863.8948 C571.9964,863.8948 503.45,863.8948 503.45,853.8948 L503.45,811.9183" fill="#F1F1F1" style="stroke:#181818;stroke-width:0.5;"/><path d="M503.45,811.9183 C503.45,821.9183 571.9964,821.9183 571.9964,821.9183 C571.9964,821.9183 640.5428,821.9183 640.5428,811.9183" fill="none" style="stroke:#181818;stroke-width:0.5;"/><text fill="#000000" font-family="sans-serif" font-size="14" lengthAdjust="spacing" textLength="76.8496" x="513.45" y="839.4534">PostgreSQL</text><text fill="#000000" font-family="sans-serif" font-size="14" lengthAdjust="spacing" textLength="117.0928" x="513.45" y="855.9417">(announcements)</text></g><!--entity alembic--><g class="entity" data-qualified-name="db.alembic" data-source-line="30" id="ent0018"><rect fill="#F1F1F1" height="52.9766" rx="2.5" ry="2.5" style="stroke:#181818;stroke-width:0.5;" width="93.0146" x="525.49" y="686.9683"/><text fill="#000000" font-family="sans-serif" font-size="14" lengthAdjust="spacing" textLength="54.6055" x="535.49" y="710.5034">Alembic</text><text fill="#000000" font-family="sans-serif" font-size="14" lengthAdjust="spacing" textLength="73.0146" x="535.49" y="726.9917">migrations</text></g><!--entity client--><g class="entity" data-qualified-name="client" data-source-line="7" id="ent0002"><ellipse cx="769.003" cy="51.4883" fill="#F1F1F1" rx="8" ry="8" style="stroke:#181818;stroke-width:0.5;"/><path d="M769.003,59.4883 L769.003,86.4883 M756.003,67.4883 L782.003,67.4883 M769.003,86.4883 L756.003,101.4883 M769.003,86.4883 L782.003,101.4883" fill="none" style="stroke:#181818;stroke-width:0.5;"/><text fill="#000000" font-family="sans-serif" font-size="14" lengthAdjust="spacing" textLength="79.666" x="729.17" y="116.5234">HTTP Client</text></g><!--entity subscribers--><g class="entity" data-qualified-name="subscribers" data-source-line="33" id="ent0019"><path d="M931.0239,810.6286 C934.6654,804.2226 938.3866,805.3905 942.55,810.0868 C946.5444,804.1646 950.2894,805.1883 954.4132,809.9429 C956.5011,805.0366 961.3333,804.2531 964.5097,808.7776 C968.9687,803.9167 972.7379,802.7993 976.7341,809.2766 C980.2569,803.0013 983.6916,802.7341 988.111,808.424 C992.4149,803.4607 997.1594,805.1578 999.5005,810.5772 C1002.7928,805.1068 1006.5277,805.0184 1010.6338,809.6832 C1014.2415,803.4439 1018.6676,804.3144 1022.2445,809.714 C1030.52,811.0768 1033.0068,816.5296 1027.0903,823.0495 C1035.3699,823.4593 1037.325,827.9992 1033.3918,834.9021 C1036.9885,839.8233 1035.2045,845.0529 1028.6227,845.3102 C1032.5595,852.1864 1031.4468,856.5243 1023.2396,858.4103 C1020.4173,863.6071 1017.0933,864.5435 1012.4662,860.5188 C1009.1582,866.8935 1005.0109,867.717 1000.6076,861.5549 C997.6805,868.5181 993.5731,869.3619 988.3898,863.7464 C986.4286,869.9666 981.1567,872.0356 976.5182,866.4354 C972.3802,870.8042 967.8251,869.8099 965.2587,864.59 C961.3556,868.2334 955.8363,868.184 954.7073,861.6998 C949.9539,867.1571 945.1615,867.7113 941.5807,860.4861 C937.9136,864.3884 933.3142,863.3829 931.2388,858.5923 C923.1748,855.6516 923.0566,851.3607 928.0574,845.2944 C922.0353,844.0402 920.5077,838.5122 924.4853,834.0744 C921.2016,828.937 921.5838,824.7106 928.2941,823.015 C923.4937,818.1403 925.0837,813.1362 931.0239,810.6286" fill="#F1F1F1" style="stroke:#181818;stroke-width:0.5;"/><text fill="#000000" font-family="sans-serif" font-size="14" lengthAdjust="spacing" textLength="62.6582" x="936.9" y="829.9534">Webhook</text><text fill="#000000" font-family="sans-serif" font-size="14" lengthAdjust="spacing" textLength="78.1963" x="936.9" y="846.4417">subscribers</text></g><g class="entity" data-qualified-name="GMN33" data-source-line="52" id="ent0034"><path d="M1285.45,388.9383 L1285.45,427.8983 L1064.41,431.8983 L1285.45,435.8983 L1285.45,475.491 A0,0 0 0 0 1285.45,475.491 L1494.5438,475.491 A0,0 0 0 0 1494.5438,475.491 L1494.5438,398.9383 L1484.5438,388.9383 L1285.45,388.9383 A0,0 0 0 0 1285.45,388.9383" fill="#FEFFDD" style="stroke:#181818;stroke-width:0.5;"/><path d="M1484.5438,388.9383 L1484.5438,398.9383 L1494.5438,398.9383 L1484.5438,388.9383" fill="#FEFFDD" style="stroke:#181818;stroke-width:0.5;"/><text fill="#000000" font-family="sans-serif" font-size="13" lengthAdjust="spacing" textLength="188.0938" x="1291.45" y="406.5066">Business logic &#8212; orchestrates</text><text fill="#000000" font-family="sans-serif" font-size="13" lengthAdjust="spacing" textLength="181.6509" x="1291.45" y="421.8172">repository writes + webhook</text><text fill="#000000" font-family="sans-serif" font-size="13" lengthAdjust="spacing" textLength="160.8687" x="1291.45" y="437.1277">event emission. Webhook</text><text fill="#000000" font-family="sans-serif" font-size="13" lengthAdjust="spacing" textLength="157.7139" x="1291.45" y="452.4383">failures do NOT roll back</text><text fill="#000000" font-family="sans-serif" font-size="13" lengthAdjust="spacing" textLength="87.5786" x="1291.45" y="467.7488">data changes.</text></g><g class="entity" data-qualified-name="GMN36" data-source-line="60" id="ent0037"><path d="M673.08,685.4883 L673.08,741.4199 L858.9286,741.4199 L858.9286,695.4883 L848.9286,685.4883 L673.08,685.4883" fill="#FEFFDD" style="stroke:#181818;stroke-width:0.5;"/><path d="M848.9286,685.4883 L848.9286,695.4883 L858.9286,695.4883 L848.9286,685.4883" fill="#FEFFDD" style="stroke:#181818;stroke-width:1;"/><text fill="#000000" font-family="sans-serif" font-size="13" lengthAdjust="spacing" textLength="133.542" x="679.08" y="703.0566">Liskov-substitutable.</text><text fill="#000000" font-family="sans-serif" font-size="13" lengthAdjust="spacing" textLength="156.2476" x="679.08" y="718.3672">In-memory used for unit</text><text fill="#000000" font-family="sans-serif" font-size="13" lengthAdjust="spacing" textLength="164.8486" x="679.08" y="733.6777">tests; SqlAlchemy in prod.</text></g><!--link client to app--><g class="link" data-entity-1="ent0002" data-entity-2="ent0004" data-link-type="dependency" data-source-line="35" id="lnk20"><path d="M769,119.6683 C769,138.9983 769,155.9383 769,173.3083" fill="none" id="client-to-app" style="stroke:#181818;stroke-width:1;"/><polygon fill="#181818" points="769,179.3083,773,170.3083,769,174.3083,765,170.3083,769,179.3083" style="stroke:#181818;stroke-width:1;"/><text fill="#000000" font-family="sans-serif" font-size="13" lengthAdjust="spacing" textLength="40.1807" x="770" y="146.0566">HTTPS</text></g><!--link app to router--><g class="link" data-entity-1="ent0004" data-entity-2="ent0005" data-link-type="dependency" data-source-line="36" id="lnk21"><path d="M769,232.9283 C769,251.4783 769,269.6283 769,286.0683" fill="none" id="app-to-router" style="stroke:#181818;stroke-width:1;"/><polygon fill="#181818" points="769,292.0683,773,283.0683,769,287.0683,765,283.0683,769,292.0683" style="stroke:#181818;stroke-width:1;"/></g><!--link router to auth--><g class="link" data-entity-1="ent0005" data-entity-2="ent0006" data-link-type="dependency" data-source-line="37" id="lnk22"><path d="M769,329.4183 C769,352.3183 769,384.8483 769,407.6683" fill="none" id="router-to-auth" style="stroke:#181818;stroke-width:1;stroke-dasharray:7,7;"/><polygon fill="#181818" points="769,413.6683,773,404.6683,769,408.6683,765,404.6683,769,413.6683" style="stroke:#181818;stroke-width:1;"/><text fill="#000000" font-family="sans-serif" font-size="13" lengthAdjust="spacing" textLength="53.7266" x="715" y="368.1066">depends</text></g><!--link router to service--><g class="link" data-entity-1="ent0005" data-entity-2="ent0008" data-link-type="dependency" data-source-line="38" id="lnk23"><path d="M829.74,310.8983 C891.76,310.8983 979,310.8983 979,310.8983 C979,310.8983 979,373.4983 979,407.5283" fill="none" id="router-to-service" style="stroke:#181818;stroke-width:1;"/><polygon fill="#181818" points="979,413.5283,983,404.5283,979,408.5283,975,404.5283,979,413.5283" style="stroke:#181818;stroke-width:1;"/></g><!--link service to repo_proto--><g class="link" data-entity-1="ent0008" data-entity-2="ent0013" data-link-type="dependency" data-source-line="39" id="lnk24"><path d="M904.71,450.7983 C904.71,487.5383 904.71,565.8983 904.71,565.8983 C904.71,565.8983 366.6,565.8983 358.1,565.8983" fill="none" id="service-to-repo_proto" style="stroke:#181818;stroke-width:1;"/><polygon fill="#181818" points="352.1,565.8983,361.1,569.8983,357.1,565.8983,361.1,561.8983,352.1,565.8983" style="stroke:#181818;stroke-width:1;"/></g><!--link service to notif_proto--><g class="link" data-entity-1="ent0008" data-entity-2="ent0009" data-link-type="dependency" data-source-line="40" id="lnk25"><path d="M979,450.6883 C979,482.8383 979,541.8583 979,565.5783" fill="none" id="service-to-notif_proto" style="stroke:#181818;stroke-width:1;"/><polygon fill="#181818" points="979,571.5783,983,562.5783,979,566.5783,975,562.5783,979,571.5783" style="stroke:#181818;stroke-width:1;"/></g><!--reverse link repo_proto to sa_repo--><g class="link" data-entity-1="ent0013" data-entity-2="ent0014" data-link-type="extension" data-source-line="42" id="lnk26"><path d="M325.26,580.8983 C283.25,580.8983 122,580.8983 122,580.8983 C122,580.8983 122,647.8983 122,686.6283" fill="none" id="repo_proto-backto-sa_repo" style="stroke:#181818;stroke-width:1;stroke-dasharray:7,7;"/><polygon fill="none" points="343.26,580.8983,325.26,574.8983,325.26,586.8983,343.26,580.8983" style="stroke:#181818;stroke-width:1;"/></g><!--reverse link repo_proto to mem_repo--><g class="link" data-entity-1="ent0013" data-entity-2="ent0015" data-link-type="extension" data-source-line="43" id="lnk27"><path d="M352,607.2183 C352,626.6883 352,656.3483 352,686.6583" fill="none" id="repo_proto-backto-mem_repo" style="stroke:#181818;stroke-width:1;stroke-dasharray:7,7;"/><polygon fill="none" points="352,589.2183,346,607.2183,358,607.2183,352,589.2183" style="stroke:#181818;stroke-width:1;"/></g><!--reverse link notif_proto to http_notif--><g class="link" data-entity-1="ent0009" data-entity-2="ent0010" data-link-type="extension" data-source-line="44" id="lnk28"><path d="M979,607.2183 C979,628.5883 979,665.9583 979,695.0183" fill="none" id="notif_proto-backto-http_notif" style="stroke:#181818;stroke-width:1;stroke-dasharray:7,7;"/><polygon fill="none" points="979,589.2183,973,607.2183,985,607.2183,979,589.2183" style="stroke:#181818;stroke-width:1;"/></g><!--reverse link notif_proto to null_notif--><g class="link" data-entity-1="ent0009" data-entity-2="ent0011" data-link-type="extension" data-source-line="45" id="lnk29"><path d="M1005.84,580.8983 C1043.79,580.8983 1173,580.8983 1173,580.8983 C1173,580.8983 1173,658.2083 1173,694.7483" fill="none" id="notif_proto-backto-null_notif" style="stroke:#181818;stroke-width:1;stroke-dasharray:7,7;"/><polygon fill="none" points="987.84,580.8983,1005.84,586.8983,1005.84,574.8983,987.84,580.8983" style="stroke:#181818;stroke-width:1;"/></g><!--link sa_repo to pg--><g class="link" data-entity-1="ent0014" data-entity-2="ent0017" data-link-type="dependency" data-source-line="47" id="lnk30"><path d="M122,740.2583 C122,775.4783 122,832.8983 122,832.8983 C122,832.8983 371.11,832.8983 497.16,832.8983" fill="none" id="sa_repo-to-pg" style="stroke:#181818;stroke-width:1;"/><polygon fill="#181818" points="503.16,832.8983,494.16,828.8983,498.16,832.8983,494.16,836.8983,503.16,832.8983" style="stroke:#181818;stroke-width:1;"/><text fill="#000000" font-family="sans-serif" font-size="13" lengthAdjust="spacing" textLength="77.6572" x="188.26" y="814.4666">SQLAlchemy</text><text fill="#000000" font-family="sans-serif" font-size="13" lengthAdjust="spacing" textLength="35.3247" x="209.4263" y="829.7772">async</text></g><!--link alembic to pg--><g class="link" data-entity-1="ent0018" data-entity-2="ent0017" data-link-type="dependency" data-source-line="48" id="lnk31"><path d="M572,740.2683 C572,758.4283 572,776.4883 572,795.5383" fill="none" id="alembic-to-pg" style="stroke:#181818;stroke-width:1;"/><polygon fill="#181818" points="572,801.5383,576,792.5383,572,796.5383,568,792.5383,572,801.5383" style="stroke:#181818;stroke-width:1;"/><text fill="#000000" font-family="sans-serif" font-size="13" lengthAdjust="spacing" textLength="26.4063" x="545" y="767.4666">DDL</text></g><!--link http_notif to subscribers--><g class="link" data-entity-1="ent0010" data-entity-2="ent0019" data-link-type="dependency" data-source-line="49" id="lnk32"><path d="M976,732.1183 C976,750.6283 976,773.3183 976,795.3683" fill="none" id="http_notif-to-subscribers" style="stroke:#181818;stroke-width:1;"/><polygon fill="#181818" points="976,801.3683,980,792.3683,976,796.3683,972,792.3683,976,801.3683" style="stroke:#181818;stroke-width:1;"/><text fill="#000000" font-family="sans-serif" font-size="13" lengthAdjust="spacing" textLength="67.3677" x="908" y="763.3166">POST JSON</text></g><!--link repo_proto to GMN36--><g class="link" data-entity-1="ent0013" data-entity-2="ent0037" data-link-type="association" data-source-line="60" id="lnk38"><path d="M352.06,595.8983 C357.07,595.8983 677.45,595.8983 677.45,595.8983 C677.45,595.8983 677.45,650.2083 677.45,684.9983" fill="none" id="repo_proto-GMN36" style="stroke:#181818;stroke-width:1;stroke-dasharray:7,7;"/></g><?plantuml-src VLJ1Rjim3BtxAuYSLWnniUis5CXQ3EtGfTaIe8Tb26IPiON8aYlAAO9jm3vYNxWl6MKviTOEErac7wb7yebUUOqmCyPsHcA3nXFy_laBBctJMiE_C7EoLXwbxnnc6UsKQOKJ3SWZOkaFdC8nGfXAOmBHog0_j0ZM-Tec3gf5QH-LgM0hD75Q8RrrCBbUhHPmgHLddO0WaFqnoreXTw92cCmMDw350Ltl5gs2Rnd0b_U2V729jbsR5zAXyBZXdxEl4TO6q3d3p_UlpftjFBhU4u_1wV2XKou4gSqE3r1Y6sCxNsS_4WPBT7ibCM51UnbPf5qSO7qEYcU6ACFNRGM7J-wngAtTpQrNMuMEQI-SzLPQVTPdDS6nQOCjvBxsldqIqkUksRxfiG4rxxJ-5ygmVK2bjNp6rfBYpX-ISXmR-teIicbbOz0ppY5qfBnyq3CjQsmEQVZQZ0bYTyGcn8M86_CH6xR_5zzW4mFIIXReI9573kgPb4LVGYcyA0G5W2LVELn-kcNM8fLxfDvM_GGrDeMIQzEeoWclhA6eWcWFLqfjk_8qlhMXhY3fLC44eXh6_m0E-eNfz2A845v34FWo2-TW6-GNFv3d5xtS6CRgGrFIqHEmHn4DtnW_zZirfzB9HWoy_PxdftO_jP_QcaH7JoAnPxv4MDcGkQVGLbm5DtiGmDe8EXYP3NqS8LTNjzcOFnOwDf01Yxlb2Zuix-PPk9pNZAfg3tQRFAft7V6U8G9jAyuTjfVbdONaUOH8Z72ZpXyTxpA2b_0O1yXUt8SPOQE8UE0vt9yyMw4qRpsMauNvtOhdfJKKhBb1MY1hNdb8USRJ2ct7WMLXlRTDeFdNaxXLjBFxQQZGAz-nDZNcRBynqwONFdI49Mnv5NP6UVOmLqzlO7nA_2g1qvNZbNy0?></g></svg>