<?plantuml 1.2026.2?><svg xmlns="http://www.w3.org/2000/svg" xmlns:xlink="http://www.w3.org/1999/xlink" contentStyleType="text/css" data-diagram-type="DESCRIPTION" height="904px" preserveAspectRatio="none" style="width:838px;height:904px;background:#FFFFFF;" version="1.1" viewBox="0 0 838 904" width="838px" zoomAndPan="magnify"><title>Deployment &#8212; docker-compose topology</title><defs/><g><g class="title" data-source-line="1"><text fill="#000000" font-family="sans-serif" font-size="14" font-weight="bold" lengthAdjust="spacing" textLength="300.7949" x="262.072" y="23.5352">Deployment &#8212; docker-compose topology</text></g><!--cluster Docker host--><g class="cluster" data-qualified-name="Docker host" data-source-line="5" id="ent0002"><polygon fill="none" points="16,162.1127,26,152.1127,634,152.1127,634,877.2927,624,887.2927,16,887.2927,16,162.1127" style="stroke:#181818;stroke-width:1;"/><line style="stroke:#181818;stroke-width:1;" x1="624" x2="634" y1="162.1127" y2="152.1127"/><line style="stroke:#181818;stroke-width:1;" x1="16" x2="624" y1="162.1127" y2="162.1127"/><line style="stroke:#181818;stroke-width:1;" x1="624" x2="624" y1="162.1127" y2="887.2927"/><text fill="#000000" font-family="sans-serif" font-size="14" font-weight="bold" lengthAdjust="spacing" textLength="87.2607" x="277.3696" y="178.6479">Docker host</text></g><!--cluster nginx--><g class="cluster" data-qualified-name="Docker host.nginx" data-source-line="6" id="ent0003"><polygon fill="none" points="61,218.1127,71,208.1127,304,208.1127,304,340.5927,294,350.5927,61,350.5927,61,218.1127" style="stroke:#181818;stroke-width:1;"/><line style="stroke:#181818;stroke-width:1;" x1="294" x2="304" y1="218.1127" y2="208.1127"/><line style="stroke:#181818;stroke-width:1;" x1="61" x2="294" y1="218.1127" y2="218.1127"/><line style="stroke:#181818;stroke-width:1;" x1="294" x2="294" y1="218.1127" y2="350.5927"/><text fill="#000000" font-family="sans-serif" font-size="14" font-weight="bold" lengthAdjust="spacing" textLength="66.9922" x="145.0039" y="234.6479">nginx :80</text></g><!--cluster apinode--><g class="cluster" data-qualified-name="Docker host.apinode" data-source-line="9" id="ent0005"><polygon fill="none" points="48,425.5927,58,415.5927,304,415.5927,304,548.0827,294,558.0827,48,558.0827,48,425.5927" style="stroke:#181818;stroke-width:1;"/><line style="stroke:#181818;stroke-width:1;" x1="294" x2="304" y1="425.5927" y2="415.5927"/><line style="stroke:#181818;stroke-width:1;" x1="48" x2="294" y1="425.5927" y2="425.5927"/><line style="stroke:#181818;stroke-width:1;" x1="294" x2="294" y1="425.5927" y2="558.0827"/><text fill="#000000" font-family="sans-serif" font-size="14" font-weight="bold" lengthAdjust="spacing" textLength="67.0742" x="138.4629" y="442.1279">api :8000</text></g><!--cluster migrate--><g class="cluster" data-qualified-name="Docker host.migrate" data-source-line="12" id="ent0007"><polygon fill="none" points="344,425.5927,354,415.5927,602,415.5927,602,548.0827,592,558.0827,344,558.0827,344,425.5927" style="stroke:#181818;stroke-width:1;"/><line style="stroke:#181818;stroke-width:1;" x1="592" x2="602" y1="425.5927" y2="415.5927"/><line style="stroke:#181818;stroke-width:1;" x1="344" x2="592" y1="425.5927" y2="425.5927"/><line style="stroke:#181818;stroke-width:1;" x1="592" x2="592" y1="425.5927" y2="558.0827"/><text fill="#000000" font-family="sans-serif" font-size="14" font-weight="bold" lengthAdjust="spacing" textLength="137.833" x="400.0835" y="442.1279">migrate (one-shot)</text></g><!--cluster pg--><g class="cluster" data-qualified-name="Docker host.pg" data-source-line="15" id="ent0009"><path d="M126,633.0827 C126,623.0827 302,623.0827 302,623.0827 C302,623.0827 478,623.0827 478,633.0827 L478,845.2927 C478,855.2927 302,855.2927 302,855.2927 C302,855.2927 126,855.2927 126,845.2927 L126,633.0827" fill="none" style="stroke:#181818;stroke-width:1;"/><path d="M126,633.0827 C126,643.0827 302,643.0827 302,643.0827 C302,643.0827 478,643.0827 478,633.0827" fill="none" style="stroke:#181818;stroke-width:1;"/><text fill="#000000" font-family="sans-serif" font-size="14" font-weight="bold" lengthAdjust="spacing" textLength="108.541" x="247.7295" y="658.6179">postgres :5432</text></g><!--entity nginx reverse proxy--><g class="entity" data-qualified-name="Docker host.nginx.nginx reverse proxy" data-source-line="7" id="ent0004"><rect fill="#F1F1F1" height="46.4883" rx="2.5" ry="2.5" style="stroke:#181818;stroke-width:0.5;" width="175.8779" x="85.06" y="280.1127"/><rect fill="#F1F1F1" height="10" style="stroke:#181818;stroke-width:0.5;" width="15" x="240.9379" y="285.1127"/><rect fill="#F1F1F1" height="2" style="stroke:#181818;stroke-width:0.5;" width="4" x="238.9379" y="287.1127"/><rect fill="#F1F1F1" height="2" style="stroke:#181818;stroke-width:0.5;" width="4" x="238.9379" y="291.1127"/><text fill="#000000" font-family="sans-serif" font-size="14" lengthAdjust="spacing" textLength="135.8779" x="100.06" y="313.6479">nginx reverse proxy</text></g><!--entity uvicorn + FastAPI app--><g class="entity" data-qualified-name="Docker host.apinode.uvicorn . FastAPI app" data-source-line="10" id="ent0006"><rect fill="#F1F1F1" height="46.4883" rx="2.5" ry="2.5" style="stroke:#181818;stroke-width:0.5;" width="188.9824" x="71.51" y="487.5927"/><rect fill="#F1F1F1" height="10" style="stroke:#181818;stroke-width:0.5;" width="15" x="240.4924" y="492.5927"/><rect fill="#F1F1F1" height="2" style="stroke:#181818;stroke-width:0.5;" width="4" x="238.4924" y="494.5927"/><rect fill="#F1F1F1" height="2" style="stroke:#181818;stroke-width:0.5;" width="4" x="238.4924" y="498.5927"/><text fill="#000000" font-family="sans-serif" font-size="14" lengthAdjust="spacing" textLength="148.9824" x="86.51" y="521.1279">uvicorn + FastAPI app</text></g><!--entity alembic upgrade head--><g class="entity" data-qualified-name="Docker host.migrate.alembic upgrade head" data-source-line="13" id="ent0008"><rect fill="#F1F1F1" height="46.4883" rx="2.5" ry="2.5" style="stroke:#181818;stroke-width:0.5;" width="190.8691" x="367.57" y="487.5927"/><rect fill="#F1F1F1" height="10" style="stroke:#181818;stroke-width:0.5;" width="15" x="538.4391" y="492.5927"/><rect fill="#F1F1F1" height="2" style="stroke:#181818;stroke-width:0.5;" width="4" x="536.4391" y="494.5927"/><rect fill="#F1F1F1" height="2" style="stroke:#181818;stroke-width:0.5;" width="4" x="536.4391" y="498.5927"/><text fill="#000000" font-family="sans-serif" font-size="14" lengthAdjust="spacing" textLength="150.8691" x="382.57" y="521.1279">alembic upgrade head</text></g><!--entity PostgreSQL 16--><g class="entity" data-qualified-name="Docker host.pg.PostgreSQL 16" data-source-line="16" id="ent0010"><rect fill="#F1F1F1" height="46.4883" rx="2.5" ry="2.5" style="stroke:#181818;stroke-width:0.5;" width="138.9844" x="149.51" y="780.8027"/><rect fill="#F1F1F1" height="10" style="stroke:#181818;stroke-width:0.5;" width="15" x="268.4944" y="785.8027"/><rect fill="#F1F1F1" height="2" style="stroke:#181818;stroke-width:0.5;" width="4" x="266.4944" y="787.8027"/><rect fill="#F1F1F1" height="2" style="stroke:#181818;stroke-width:0.5;" width="4" x="266.4944" y="791.8027"/><text fill="#000000" font-family="sans-serif" font-size="14" lengthAdjust="spacing" textLength="98.9844" x="164.51" y="814.3379">PostgreSQL 16</text></g><!--entity vol--><g class="entity" data-qualified-name="Docker host.pg.vol" data-source-line="17" id="ent0011"><path d="M326.03,776.8027 L367.03,776.8027 A3.75,3.75 0 0 1 369.53,779.3027 L376.53,797.8027 L451.9626,797.8027 A2.5,2.5 0 0 1 454.4626,800.3027 L454.4626,828.791 A2.5,2.5 0 0 1 451.9626,831.291 L326.03,831.291 A2.5,2.5 0 0 1 323.53,828.791 L323.53,779.3027 A2.5,2.5 0 0 1 326.03,776.8027" fill="#F1F1F1" style="stroke:#181818;stroke-width:0.5;"/><line style="stroke:#181818;stroke-width:0.5;" x1="323.53" x2="376.53" y1="797.8027" y2="797.8027"/><text fill="#000000" font-family="sans-serif" font-size="14" lengthAdjust="spacing" textLength="100.9326" x="333.53" y="818.3379">pgdata volume</text></g><!--entity web--><g class="entity" data-qualified-name="web" data-source-line="21" id="ent0012"><path d="M262.7078,51.8126 C265.2736,46.8418 269.5708,45.6732 273.598,50.1234 C277.2015,43.7692 282.7168,44.6117 286.5732,49.84 C289.2253,44.6422 294.8388,44.0125 298.1409,49.1096 C300.8062,44.9891 304.5906,44.5924 307.2757,49.0886 C311.8215,43.4883 317.4737,45.1618 319.9351,51.3307 C324.4893,45.5729 327.9279,45.8799 331.2421,52.4665 C338.69,55.3801 338.8253,61.7973 333.6468,66.8255 C339.2927,72.861 337.4984,77.7638 330.7512,81.3243 C330.1719,88.1927 324.4545,89.6124 319.7519,85.4274 C318.4585,91.524 313.2596,93.0221 308.7351,88.9165 C305.9349,95.0199 301.4407,96.1673 296.5167,91.2767 C291.6097,95.541 288.5963,94.738 286.6161,88.5139 C281.7797,92.8831 276.5712,91.9034 274.9985,85.1155 C270.7577,89.9729 266.3944,88.5391 264.2536,82.9546 C255.032,81.1014 253.2002,74.5533 258.2789,67.2573 C252.6292,61.0956 253.98,53.8515 262.7078,51.8126" fill="#F1F1F1" style="stroke:#181818;stroke-width:0.5;"/><text fill="#000000" font-family="sans-serif" font-size="14" lengthAdjust="spacing" textLength="53.2109" x="269.39" y="71.1579">Internet</text></g><!--entity subs--><g class="entity" data-qualified-name="subs" data-source-line="22" id="ent0013"><path d="M659.1062,495.6193 C663.314,490.0176 667.704,490.982 671.297,496.3053 C674.0496,491.5388 679.3082,490.9867 682.1126,496.2495 C684.6386,490.6041 690.0484,490.9599 693.2652,495.4926 C695.7377,488.5146 701.5814,488.1026 705.4516,494.1888 C709.1783,488.2186 713.8039,488.5487 717.1048,494.6015 C720.5742,489.4208 724.3147,489.0383 728.606,493.6348 C731.7971,488.6184 736.3987,488.6678 739.4234,493.8121 C742.4749,489.0082 746.3621,488.1724 749.9367,493.2558 C753.7914,487.3587 760.1363,488.5823 762.7744,494.57 C765.3874,489.2205 770.1138,488.7123 773.1546,494.1588 C776.7386,489.9805 782.0673,491.0421 783.8238,496.2386 C786.4401,489.8438 791.9468,489.067 796.0404,494.7436 C799.8102,490.0457 802.9576,490.8522 806.2939,495.2332 C811.6713,489.2725 815.7053,491.0051 819.3087,497.1418 C828.9209,499.09 831.939,504.7644 825.2072,512.8499 C829.55,520.1078 828.069,525.3698 819.2777,527.201 C816.4016,532.4735 811.298,531.7484 808.374,527.2544 C805.2496,532.4134 799.6371,532.6469 796.2764,527.5326 C794.2388,533.3734 789.0091,533.4383 785.2859,529.4099 C781.9595,536.0771 777.4336,536.104 772.7709,530.8078 C769.0255,536.8244 763.9849,536.4921 761.0111,530.0778 C758.1944,535.6892 753.2433,536.4176 749.7075,530.8018 C746.5783,535.826 743.4001,536.6124 739.2775,531.8619 C734.8624,537.8002 730.8768,536.7426 727.5462,530.7918 C724.3825,536.5184 719.0979,535.8759 716.6368,530.1241 C713.1345,536.2522 708.7869,535.1299 705.3337,530.0744 C702.3115,534.9589 696.7378,535.5755 693.6206,530.1827 C689.2505,534.4069 684.7736,534.1474 681.8456,528.468 C678.9216,534.312 673.2744,533.7577 670.0233,528.8269 C666.8067,533.095 661.8248,533.839 659.4561,527.9452 C651.5527,524.3091 649.0996,518.4908 656.2516,511.8561 C649.5088,506.3017 651.3219,498.6197 659.1062,495.6193" fill="#F1F1F1" style="stroke:#181818;stroke-width:0.5;"/><text fill="#000000" font-family="sans-serif" font-size="14" lengthAdjust="spacing" textLength="145.2842" x="665.36" y="516.1279">Webhook subscribers</text></g><!--link web to nginx--><g class="link" data-entity-1="ent0012" data-entity-2="ent0003" data-link-type="dependency" data-source-line="24" id="lnk14"><path d="M296,89.4427 C296,103.9477 296,124.2077 296,146.5118 C296,157.6638 296,169.3268 296,181.037 C296,186.8921 296,192.759 296,198.5797 C296,201.4901 296,198.3889 296,201.2689" fill="none" id="web-to-nginx" style="stroke:#181818;stroke-width:1;"/><polygon fill="#181818" points="296,207.2689,300,198.2689,296,202.2689,292,198.2689,296,207.2689" style="stroke:#181818;stroke-width:1;"/><text fill="#000000" font-family="sans-serif" font-size="13" lengthAdjust="spacing" textLength="20.5537" x="297" y="132.6811">:80</text></g><!--link nginx to apinode--><g class="link" data-entity-1="ent0003" data-entity-2="ent0005" data-link-type="dependency" data-source-line="25" id="lnk15"><path d="M296,351.5778 C296,352.2443 296,352.9153 296,353.5905 C296,358.9923 296,364.6677 296,370.5256 C296,382.2414 296,394.6868 296,407.1315 C296,408.687 296,410.2426 296,411.7968 C296,412.5738 296,413.3505 296,414.1267 C296,414.5148 296,408.9027 296,409.2905" fill="none" id="nginx-to-apinode" style="stroke:#181818;stroke-width:1;"/><polygon fill="#181818" points="296,415.2905,300,406.2905,296,410.2905,292,406.2905,296,415.2905" style="stroke:#181818;stroke-width:1;"/><text fill="#000000" font-family="sans-serif" font-size="13" lengthAdjust="spacing" textLength="99.8359" x="297" y="388.1611">http://api:8000</text></g><!--link apinode to pg--><g class="link" data-entity-1="ent0005" data-entity-2="ent0009" data-link-type="dependency" data-source-line="26" id="lnk16"><path d="M304.1364,528.1619 C304.556,529.0038 304.9891,529.8729 305.4351,530.7679 C307.2192,534.3478 309.2097,538.342 311.3655,542.6675 C319.9884,559.9699 331.2544,582.5746 342.5188,605.1765 C345.3348,610.8269 348.1508,616.4772 350.9254,622.0444 C351.0121,622.2184 348.4225,617.0223 348.5091,617.1961" fill="none" id="apinode-to-pg" style="stroke:#181818;stroke-width:1;"/><polygon fill="#181818" points="351.1854,622.5661,350.751,612.7269,348.9552,618.0911,343.5909,616.2953,351.1854,622.5661" style="stroke:#181818;stroke-width:1;"/><text fill="#000000" font-family="sans-serif" font-size="13" lengthAdjust="spacing" textLength="77.6572" x="337.93" y="595.6511">SQLAlchemy</text></g><!--link migrate to pg--><g class="link" data-entity-1="ent0007" data-entity-2="ent0009" data-link-type="dependency" data-source-line="27" id="lnk17"><path d="M582.9428,558.3378 C582.8528,558.5451 582.7622,558.7521 582.6708,558.9588 C582.4881,559.3723 582.3026,559.7846 582.1141,560.1956 C581.3602,561.8395 580.5599,563.4619 579.7103,565.0507 C578.0111,568.2283 576.115,571.2715 574,574.0827 C559.3425,593.5677 540.695,610.994 520.9091,626.1947 C511.0161,633.7951 500.8385,640.8392 490.7328,647.306 C488.2063,648.9227 485.6844,650.5033 483.1725,652.0475 C481.9166,652.8196 480.6631,653.5827 479.4129,654.3365 C479.1004,654.525 483.9327,651.6254 483.6205,651.8128" fill="none" id="migrate-to-pg" style="stroke:#181818;stroke-width:1;"/><polygon fill="#181818" points="478.4759,654.9002,488.2512,653.6988,482.7631,652.3273,484.1346,646.8393,478.4759,654.9002" style="stroke:#181818;stroke-width:1;"/><text fill="#000000" font-family="sans-serif" font-size="13" lengthAdjust="spacing" textLength="95.7861" x="567.55" y="595.6511">DDL on startup</text></g><!--link pg to vol--><g class="link" data-entity-1="ent0009" data-entity-2="ent0011" data-link-type="dependency" data-source-line="28" id="lnk18"><path d="M389,700.1027 C389,704.0727 389,762.1727 389,791.3227" fill="none" id="pg-to-vol" style="stroke:#181818;stroke-width:1;"/><polygon fill="#181818" points="389,797.3227,393,788.3227,389,792.3227,385,788.3227,389,797.3227" style="stroke:#181818;stroke-width:1;"/><text fill="#000000" font-family="sans-serif" font-size="13" lengthAdjust="spacing" textLength="57.6812" x="390" y="743.3711">data files</text></g><!--link apinode to subs--><g class="link" data-entity-1="ent0005" data-entity-2="ent0013" data-link-type="dependency" data-source-line="29" id="lnk19"><path d="M304.1206,475.775 C304.2243,475.4439 304.3292,475.1116 304.4353,474.7782 C304.6475,474.1114 304.8645,473.44 305.0864,472.7645 C305.9739,470.0624 306.9395,467.2943 307.9888,464.4877 C316.3825,442.0352 330.125,417.1227 352,403.8827 C401.05,374.2027 556.1,384.3327 610,403.8827 C655.73,420.4827 692.6389,456.8199 715.3089,482.9599" fill="none" id="apinode-to-subs" style="stroke:#181818;stroke-width:1;"/><polygon fill="#181818" points="719.24,487.4927,716.3652,478.0727,715.9641,483.7154,710.3215,483.3142,719.24,487.4927" style="stroke:#181818;stroke-width:1;"/><text fill="#000000" font-family="sans-serif" font-size="13" lengthAdjust="spacing" textLength="100.3247" x="476" y="388.1611">webhook POSTs</text></g><?plantuml-src LL3BQiCm4BphAnQVMaf8-gJu40Y4GY3Gb1HwA3t8ziOMaRL2alEW1FeH_S9-ITUodTARTcPdD3j11OqmHwlfMAC9yFFr3GNbMtIZd6fB7Y6G9KtbKGY_LSPA9slmbInehqm96waz2c6eG4ZcKGaL-P30fm3eO5CgSu3qSPA0zD1DBGlmtWqET-ZuA-leSFnWvdJMIgjQvQJJyXJXNjtiL4xEm1KyIHzcgmKlsF_wMfLE1eGBCZZo5ONBQ3J0lP7KM6SgXyOopB8APJ7u53B8J7AwXEi8fKCFwVtTxKtqiULWiUh8zSiIhXy-8hOXNN0TYIrR3zYHRcgCCdv6zvCGkQQcW6HX0Zg38T9xp0Ry3REAQ0k-oNpkLCOznPLs5e8NOJIQzfscRLEYUxVeq5OALGWs7OyPY5sAWMct-8GKEFPCvnNMHp5KS-RcyoMG0H-a2uqLZBKKdy1SF6oZDFe_psaCn-I-pxvwNh_wNm00?></g></svg>