<?plantuml 1.2026.2?><svg xmlns="http://www.w3.org/2000/svg" xmlns:xlink="http://www.w3.org/1999/xlink" contentStyleType="text/css" data-diagram-type="CLASS" height="370px" preserveAspectRatio="none" style="width:300px;height:370px;background:#FFFFFF;" version="1.1" viewBox="0 0 300 370" width="300px" zoomAndPan="magnify"><title>Schema &#8212; announcements table</title><defs/><g><g class="title" data-source-line="1"><text fill="#000000" font-family="sans-serif" font-size="14" font-weight="bold" lengthAdjust="spacing" textLength="232.5996" x="27.1914" y="23.5352">Schema &#8212; announcements table</text></g><!--class announcements--><g class="entity" data-qualified-name="announcements" data-source-line="7" id="ent0002"><rect fill="#F1F1F1" height="187.9063" rx="2.5" ry="2.5" style="stroke:#181818;stroke-width:0.5;" width="286.9824" x="7" y="44.4883"/><ellipse cx="92.2476" cy="60.4883" fill="#FFCC66" rx="11" ry="11" style="stroke:#181818;stroke-width:1;"/><path d="M93.5894,67.7383 L91.1406,67.7383 L91.1406,57.4868 L87.9946,57.4868 L87.9946,55.3452 L96.7354,55.3452 L96.7354,57.4868 L93.5894,57.4868 Z " fill="#000000"/><text fill="#000000" font-family="sans-serif" font-size="14" lengthAdjust="spacing" textLength="107.9873" x="112.7476" y="65.7793">announcements</text><line style="stroke:#181818;stroke-width:0.5;" x1="8" x2="292.9824" y1="76.4883" y2="76.4883"/><g data-visibility-modifier="PUBLIC_FIELD"><ellipse cx="18" cy="90.2324" fill="none" rx="3" ry="3" style="stroke:#038048;stroke-width:1;"/></g><text fill="#000000" font-family="sans-serif" font-size="14" lengthAdjust="spacing" textLength="119.499" x="27" y="94.0234">id : INTEGER &#171;PK&#187;</text><line style="stroke:#181818;stroke-width:1;" x1="8" x2="292.9824" y1="100.9766" y2="100.9766"/><text fill="#000000" font-family="sans-serif" font-size="14" lengthAdjust="spacing" textLength="274.9824" x="13" y="118.5117">message    : VARCHAR(5000)  NOT NULL</text><text fill="#000000" font-family="sans-serif" font-size="14" lengthAdjust="spacing" textLength="260.2578" x="13" y="135">author     : VARCHAR(255)   NOT NULL</text><text fill="#000000" font-family="sans-serif" font-size="14" lengthAdjust="spacing" textLength="266.4238" x="13" y="151.4883">created_at : TIMESTAMPTZ    NOT NULL</text><text fill="#000000" font-family="sans-serif" font-size="14" lengthAdjust="spacing" textLength="272.0361" x="13" y="167.9766">updated_at : TIMESTAMPTZ    NOT NULL</text><text fill="#000000" font-family="sans-serif" font-size="14" lengthAdjust="spacing" textLength="231.9502" x="13" y="184.4648">deleted_at : TIMESTAMPTZ    NULL</text><line style="stroke:#181818;stroke-width:1;stroke-dasharray:1,2;" x1="8" x2="292.9824" y1="191.418" y2="191.418"/><text fill="#000000" font-family="sans-serif" font-size="14" lengthAdjust="spacing" textLength="270.3955" x="13" y="208.9531">INDEX ix_announcements_deleted_at_id</text><text fill="#000000" font-family="sans-serif" font-size="14" lengthAdjust="spacing" textLength="101.0967" x="13" y="225.4414">(deleted_at, id)</text></g><g class="entity" data-qualified-name="GMN3" data-source-line="21" id="ent0004"><path d="M11.9,292.3983 L11.9,363.6405 A0,0 0 0 0 11.9,363.6405 L289.0787,363.6405 A0,0 0 0 0 289.0787,363.6405 L289.0787,302.3983 L279.0787,292.3983 L154.49,292.3983 L150.49,232.6783 L146.49,292.3983 L11.9,292.3983 A0,0 0 0 0 11.9,292.3983" fill="#FEFFDD" style="stroke:#181818;stroke-width:0.5;"/><path d="M279.0787,292.3983 L279.0787,302.3983 L289.0787,302.3983 L279.0787,292.3983" fill="#FEFFDD" style="stroke:#181818;stroke-width:0.5;"/><text fill="#000000" font-family="sans-serif" font-size="13" lengthAdjust="spacing" textLength="256.1787" x="17.9" y="309.9666">Soft delete: ``deleted_at IS NOT NULL``</text><text fill="#000000" font-family="sans-serif" font-size="13" lengthAdjust="spacing" textLength="222.7837" x="17.9" y="325.2772">hides the row from default queries.</text><text fill="#000000" font-family="sans-serif" font-size="13" lengthAdjust="spacing" textLength="178.5469" x="17.9" y="340.5877">Index supports the common</text><text fill="#000000" font-family="sans-serif" font-size="13" lengthAdjust="spacing" textLength="226.002" x="17.9" y="355.8983">"list non-deleted, paginated" query.</text></g><?plantuml-src ZP71IWCn48RlUOfVlNInBKMeXr8ALHSjrbhQLSHBcsvcsy1kicvcqIA23-4J-YIcjbZt89Z3m6I--UTFXZMdX6cyeapYy_q3qXXRcfWoCkp0Sf6I40UA4cq8KVzi6DQCp2Y0hsjUOvEWsqKjgXybIHoVdWRezSHAAq96lBBARHF7L93bTKvEYArGPLQ0Lm4SQuKE1gCel0mdNdTyxSM0HiE7Z9oJIu8_7Tpt9-TN_KcjtMgr0c1q6s5qDnnwJ9P-Qe4gTj9kU-et5XSacTHCiiUYmKquZVetu-WHLQpCrNymHIdzYMsHPjE7mUWYV81-cLNUFjktpxGIs9tQ_heEhGBn9eInJ5XOPfl19jLr-SQfJNXdfeFv_9UjmVJ7xtpkoSrI_89NXC8-8ocydj-oB5F6Kqc59lVjroXwWIlpt1QynMERPTRusc6g7SDOqzYDgIENIsqs_tNuBR9k2Z8A6yzV?></g></svg>