<?plantuml 1.2026.2?><svg xmlns="http://www.w3.org/2000/svg" xmlns:xlink="http://www.w3.org/1999/xlink" contentStyleType="text/css" data-diagram-type="SEQUENCE" height="743px" preserveAspectRatio="none" style="width:1238px;height:743px;background:#FFFFFF;" version="1.1" viewBox="0 0 1238 743" width="1238px" zoomAndPan="magnify"><title>Sequence &#8212; POST /api/v1/announcements</title><defs/><g><text fill="#000000" font-family="sans-serif" font-size="14" font-weight="bold" lengthAdjust="spacing" textLength="310.8506" x="462.8914" y="28.5352">Sequence &#8212; POST /api/v1/announcements</text><g class="participant-lifeline" data-entity-uid="part1" data-qualified-name="Client" id="part1-lifeline"><g><title>Client</title><rect fill="#000000" fill-opacity="0.00000" height="543.5215" width="8" x="23.7524" y="118.9766"/><line style="stroke:#181818;stroke-width:0.5;stroke-dasharray:5,5;" x1="27" x2="27" y1="118.9766" y2="662.498"/></g></g><g class="participant-lifeline" data-entity-uid="part2" data-qualified-name="Router" id="part2-lifeline"><g><title>FastAPI</title><rect fill="#000000" fill-opacity="0.00000" height="543.5215" width="8" x="239.166" y="118.9766"/><line style="stroke:#181818;stroke-width:0.5;stroke-dasharray:5,5;" x1="242.6455" x2="242.6455" y1="118.9766" y2="662.498"/></g></g><g class="participant-lifeline" data-entity-uid="part3" data-qualified-name="Auth" id="part3-lifeline"><g><title>require_api_key</title><rect fill="#000000" fill-opacity="0.00000" height="543.5215" width="8" x="379.2012" y="118.9766"/><line style="stroke:#181818;stroke-width:0.5;stroke-dasharray:5,5;" x1="382.9561" x2="382.9561" y1="118.9766" y2="662.498"/></g></g><g class="participant-lifeline" data-entity-uid="part4" data-qualified-name="Service" id="part4-lifeline"><g><title>Announcement</title><rect fill="#000000" fill-opacity="0.00000" height="543.5215" width="8" x="507.8354" y="118.9766"/><line style="stroke:#181818;stroke-width:0.5;stroke-dasharray:5,5;" x1="511.4463" x2="511.4463" y1="118.9766" y2="662.498"/></g></g><g class="participant-lifeline" data-entity-uid="part5" data-qualified-name="Repo" id="part5-lifeline"><g><title>SqlAlchemy</title><rect fill="#000000" fill-opacity="0.00000" height="543.5215" width="8" x="670.3413" y="118.9766"/><line style="stroke:#181818;stroke-width:0.5;stroke-dasharray:5,5;" x1="674.2671" x2="674.2671" y1="118.9766" y2="662.498"/></g></g><g class="participant-lifeline" data-entity-uid="part6" data-qualified-name="DB" id="part6-lifeline"><g><title>PostgreSQL</title><rect fill="#000000" fill-opacity="0.00000" height="543.5215" width="8" x="842.5654" y="118.9766"/><line style="stroke:#181818;stroke-width:0.5;stroke-dasharray:5,5;" x1="846.1406" x2="846.1406" y1="118.9766" y2="662.498"/></g></g><g class="participant-lifeline" data-entity-uid="part7" data-qualified-name="Notifier" id="part7-lifeline"><g><title>HttpWebhook</title><rect fill="#000000" fill-opacity="0.00000" height="543.5215" width="8" x="947.1055" y="118.9766"/><line style="stroke:#181818;stroke-width:0.5;stroke-dasharray:5,5;" x1="950.9902" x2="950.9902" y1="118.9766" y2="662.498"/></g></g><g class="participant-lifeline" data-entity-uid="part8" data-qualified-name="Subs" id="part8-lifeline"><g><title>subscribers..</title><rect fill="#000000" fill-opacity="0.00000" height="543.5215" width="8" x="1175.9824" y="118.9766"/><line style="stroke:#181818;stroke-width:0.5;stroke-dasharray:5,5;" x1="1179.3315" x2="1179.3315" y1="118.9766" y2="662.498"/></g></g><g class="participant participant-head" data-entity-uid="part1" data-qualified-name="Client" id="part1-head"><text fill="#000000" font-family="sans-serif" font-size="14" lengthAdjust="spacing" textLength="39.5049" x="5" y="116.0234">Client</text><ellipse cx="27.7524" cy="50.9883" fill="#E2E2F0" rx="8" ry="8" style="stroke:#181818;stroke-width:0.5;"/><path d="M27.7524,58.9883 L27.7524,85.9883 M14.7524,66.9883 L40.7524,66.9883 M27.7524,85.9883 L14.7524,100.9883 M27.7524,85.9883 L40.7524,100.9883" fill="none" style="stroke:#181818;stroke-width:0.5;"/></g><g class="participant participant-tail" data-entity-uid="part1" data-qualified-name="Client" id="part1-tail"><text fill="#000000" font-family="sans-serif" font-size="14" lengthAdjust="spacing" textLength="39.5049" x="5" y="675.0332">Client</text><ellipse cx="27.7524" cy="686.4863" fill="#E2E2F0" rx="8" ry="8" style="stroke:#181818;stroke-width:0.5;"/><path d="M27.7524,694.4863 L27.7524,721.4863 M14.7524,702.4863 L40.7524,702.4863 M27.7524,721.4863 L14.7524,736.4863 M27.7524,721.4863 L40.7524,736.4863" fill="none" style="stroke:#181818;stroke-width:0.5;"/></g><g class="participant participant-head" data-entity-uid="part2" data-qualified-name="Router" id="part2-head"><rect fill="#E2E2F0" height="46.9766" rx="2.5" ry="2.5" style="stroke:#181818;stroke-width:0.5;" width="63.041" x="211.6455" y="71"/><text fill="#000000" font-family="sans-serif" font-size="14" lengthAdjust="spacing" textLength="49.041" x="218.6455" y="91.5352">FastAPI</text><text fill="#000000" font-family="sans-serif" font-size="14" lengthAdjust="spacing" textLength="41.7813" x="222.2754" y="108.0234">router</text></g><g class="participant participant-tail" data-entity-uid="part2" data-qualified-name="Router" id="part2-tail"><rect fill="#E2E2F0" height="46.9766" rx="2.5" ry="2.5" style="stroke:#181818;stroke-width:0.5;" width="63.041" x="211.6455" y="661.498"/><text fill="#000000" font-family="sans-serif" font-size="14" lengthAdjust="spacing" textLength="49.041" x="218.6455" y="682.0332">FastAPI</text><text fill="#000000" font-family="sans-serif" font-size="14" lengthAdjust="spacing" textLength="41.7813" x="222.2754" y="698.5215">router</text></g><g class="participant participant-head" data-entity-uid="part3" data-qualified-name="Auth" id="part3-head"><rect fill="#E2E2F0" height="30.4883" rx="2.5" ry="2.5" style="stroke:#181818;stroke-width:0.5;" width="120.4902" x="322.9561" y="87.4883"/><text fill="#000000" font-family="sans-serif" font-size="14" lengthAdjust="spacing" textLength="106.4902" x="329.9561" y="108.0234">require_api_key</text></g><g class="participant participant-tail" data-entity-uid="part3" data-qualified-name="Auth" id="part3-tail"><rect fill="#E2E2F0" height="30.4883" rx="2.5" ry="2.5" style="stroke:#181818;stroke-width:0.5;" width="120.4902" x="322.9561" y="661.498"/><text fill="#000000" font-family="sans-serif" font-size="14" lengthAdjust="spacing" textLength="106.4902" x="329.9561" y="682.0332">require_api_key</text></g><g class="participant participant-head" data-entity-uid="part4" data-qualified-name="Service" id="part4-head"><rect fill="#E2E2F0" height="46.9766" rx="2.5" ry="2.5" style="stroke:#181818;stroke-width:0.5;" width="116.7783" x="453.4463" y="71"/><text fill="#000000" font-family="sans-serif" font-size="14" lengthAdjust="spacing" textLength="102.7783" x="460.4463" y="91.5352">Announcement</text><text fill="#000000" font-family="sans-serif" font-size="14" lengthAdjust="spacing" textLength="47.332" x="488.1694" y="108.0234">Service</text></g><g class="participant participant-tail" data-entity-uid="part4" data-qualified-name="Service" id="part4-tail"><rect fill="#E2E2F0" height="46.9766" rx="2.5" ry="2.5" style="stroke:#181818;stroke-width:0.5;" width="116.7783" x="453.4463" y="661.498"/><text fill="#000000" font-family="sans-serif" font-size="14" lengthAdjust="spacing" textLength="102.7783" x="460.4463" y="682.0332">Announcement</text><text fill="#000000" font-family="sans-serif" font-size="14" lengthAdjust="spacing" textLength="47.332" x="488.1694" y="698.5215">Service</text></g><g class="participant participant-head" data-entity-uid="part5" data-qualified-name="Repo" id="part5-head"><rect fill="#E2E2F0" height="46.9766" rx="2.5" ry="2.5" style="stroke:#181818;stroke-width:0.5;" width="92.1484" x="628.2671" y="71"/><text fill="#000000" font-family="sans-serif" font-size="14" lengthAdjust="spacing" textLength="78.1484" x="635.2671" y="91.5352">SqlAlchemy</text><text fill="#000000" font-family="sans-serif" font-size="14" lengthAdjust="spacing" textLength="72.126" x="638.2783" y="108.0234">Repository</text></g><g class="participant participant-tail" data-entity-uid="part5" data-qualified-name="Repo" id="part5-tail"><rect fill="#E2E2F0" height="46.9766" rx="2.5" ry="2.5" style="stroke:#181818;stroke-width:0.5;" width="92.1484" x="628.2671" y="661.498"/><text fill="#000000" font-family="sans-serif" font-size="14" lengthAdjust="spacing" textLength="78.1484" x="635.2671" y="682.0332">SqlAlchemy</text><text fill="#000000" font-family="sans-serif" font-size="14" lengthAdjust="spacing" textLength="72.126" x="638.2783" y="698.5215">Repository</text></g><g class="participant participant-head" data-entity-uid="part6" data-qualified-name="DB" id="part6-head"><text fill="#000000" font-family="sans-serif" font-size="14" lengthAdjust="spacing" textLength="76.8496" x="805.1406" y="116.0234">PostgreSQL</text><path d="M828.5654,66.4883 C828.5654,56.4883 846.5654,56.4883 846.5654,56.4883 C846.5654,56.4883 864.5654,56.4883 864.5654,66.4883 L864.5654,92.4883 C864.5654,102.4883 846.5654,102.4883 846.5654,102.4883 C846.5654,102.4883 828.5654,102.4883 828.5654,92.4883 L828.5654,66.4883" fill="#E2E2F0" style="stroke:#181818;stroke-width:0.5;"/><path d="M828.5654,66.4883 C828.5654,76.4883 846.5654,76.4883 846.5654,76.4883 C846.5654,76.4883 864.5654,76.4883 864.5654,66.4883" fill="none" style="stroke:#181818;stroke-width:0.5;"/></g><g class="participant participant-tail" data-entity-uid="part6" data-qualified-name="DB" id="part6-tail"><text fill="#000000" font-family="sans-serif" font-size="14" lengthAdjust="spacing" textLength="76.8496" x="805.1406" y="675.0332">PostgreSQL</text><path d="M828.5654,687.9863 C828.5654,677.9863 846.5654,677.9863 846.5654,677.9863 C846.5654,677.9863 864.5654,677.9863 864.5654,687.9863 L864.5654,713.9863 C864.5654,723.9863 846.5654,723.9863 846.5654,723.9863 C846.5654,723.9863 828.5654,723.9863 828.5654,713.9863 L828.5654,687.9863" fill="#E2E2F0" style="stroke:#181818;stroke-width:0.5;"/><path d="M828.5654,687.9863 C828.5654,697.9863 846.5654,697.9863 846.5654,697.9863 C846.5654,697.9863 864.5654,697.9863 864.5654,687.9863" fill="none" style="stroke:#181818;stroke-width:0.5;"/></g><g class="participant participant-head" data-entity-uid="part7" data-qualified-name="Notifier" id="part7-head"><rect fill="#E2E2F0" height="46.9766" rx="2.5" ry="2.5" style="stroke:#181818;stroke-width:0.5;" width="106.2305" x="897.9902" y="71"/><text fill="#000000" font-family="sans-serif" font-size="14" lengthAdjust="spacing" textLength="92.2305" x="904.9902" y="91.5352">HttpWebhook</text><text fill="#000000" font-family="sans-serif" font-size="14" lengthAdjust="spacing" textLength="50.9482" x="925.6313" y="108.0234">Notifier</text></g><g class="participant participant-tail" data-entity-uid="part7" data-qualified-name="Notifier" id="part7-tail"><rect fill="#E2E2F0" height="46.9766" rx="2.5" ry="2.5" style="stroke:#181818;stroke-width:0.5;" width="106.2305" x="897.9902" y="661.498"/><text fill="#000000" font-family="sans-serif" font-size="14" lengthAdjust="spacing" textLength="92.2305" x="904.9902" y="682.0332">HttpWebhook</text><text fill="#000000" font-family="sans-serif" font-size="14" lengthAdjust="spacing" textLength="50.9482" x="925.6313" y="698.5215">Notifier</text></g><g class="participant participant-head" data-entity-uid="part8" data-qualified-name="Subs" id="part8-head"><rect fill="#E2E2F0" height="30.4883" style="stroke:#181818;stroke-width:0.5;" width="101.3018" x="1131.3315" y="83.4883"/><rect fill="#E2E2F0" height="30.4883" style="stroke:#181818;stroke-width:0.5;" width="101.3018" x="1127.3315" y="87.4883"/><text fill="#000000" font-family="sans-serif" font-size="14" lengthAdjust="spacing" textLength="87.3018" x="1134.3315" y="108.0234">subscribers[]</text></g><g class="participant participant-tail" data-entity-uid="part8" data-qualified-name="Subs" id="part8-tail"><rect fill="#E2E2F0" height="30.4883" style="stroke:#181818;stroke-width:0.5;" width="101.3018" x="1131.3315" y="661.498"/><rect fill="#E2E2F0" height="30.4883" style="stroke:#181818;stroke-width:0.5;" width="101.3018" x="1127.3315" y="665.498"/><text fill="#000000" font-family="sans-serif" font-size="14" lengthAdjust="spacing" textLength="87.3018" x="1134.3315" y="686.0332">subscribers[]</text></g><g class="message" data-entity-1="part1" data-entity-2="part2" id="msg1"><polygon fill="#181818" points="231.166,176.9082,241.166,180.9082,231.166,184.9082,235.166,180.9082" style="stroke:#181818;stroke-width:1;"/><line style="stroke:#181818;stroke-width:1;" x1="27.7524" x2="237.166" y1="180.9082" y2="180.9082"/><text fill="#000000" font-family="sans-serif" font-size="13" lengthAdjust="spacing" textLength="191.4136" x="39.7524" y="145.5449">POST /api/v1/announcements</text><text fill="#000000" font-family="sans-serif" font-size="13" lengthAdjust="spacing" textLength="121.856" x="74.5313" y="160.8555">headers: x-api-key</text><text fill="#000000" font-family="sans-serif" font-size="13" lengthAdjust="spacing" textLength="152.6929" x="59.1128" y="176.166">body: {message, author}</text></g><g class="message" data-entity-1="part2" data-entity-2="part3" id="msg2"><polygon fill="#181818" points="371.2012,206.2188,381.2012,210.2188,371.2012,214.2188,375.2012,210.2188" style="stroke:#181818;stroke-width:1;"/><line style="stroke:#181818;stroke-width:1;" x1="243.166" x2="377.2012" y1="210.2188" y2="210.2188"/><text fill="#000000" font-family="sans-serif" font-size="13" lengthAdjust="spacing" textLength="107.3389" x="259.5142" y="205.4766">require_api_key()</text></g><g class="message" data-entity-1="part3" data-entity-2="part2" id="msg3"><polygon fill="#181818" points="254.166,235.5293,244.166,239.5293,254.166,243.5293,250.166,239.5293" style="stroke:#181818;stroke-width:1;"/><line style="stroke:#181818;stroke-width:1;stroke-dasharray:2,2;" x1="248.166" x2="382.2012" y1="239.5293" y2="239.5293"/><text fill="#000000" font-family="sans-serif" font-size="13" lengthAdjust="spacing" textLength="116.0352" x="255.166" y="234.7871">ok (else raise 401)</text></g><g class="message" data-entity-1="part2" data-entity-2="part4" id="msg4"><polygon fill="#181818" points="499.8354,264.8398,509.8354,268.8398,499.8354,272.8398,503.8354,268.8398" style="stroke:#181818;stroke-width:1;"/><line style="stroke:#181818;stroke-width:1;" x1="243.166" x2="505.8354" y1="268.8398" y2="268.8398"/><text fill="#000000" font-family="sans-serif" font-size="13" lengthAdjust="spacing" textLength="183.2378" x="285.8818" y="264.0977">create(AnnouncementCreate)</text></g><g class="message" data-entity-1="part4" data-entity-2="part5" id="msg5"><polygon fill="#181818" points="662.3413,294.1504,672.3413,298.1504,662.3413,302.1504,666.3413,298.1504" style="stroke:#181818;stroke-width:1;"/><line style="stroke:#181818;stroke-width:1;" x1="511.8354" x2="668.3413" y1="298.1504" y2="298.1504"/><text fill="#000000" font-family="sans-serif" font-size="13" lengthAdjust="spacing" textLength="74.3628" x="555.907" y="293.4082">create(data)</text></g><g class="message" data-entity-1="part5" data-entity-2="part6" id="msg6"><polygon fill="#181818" points="834.5654,323.4609,844.5654,327.4609,834.5654,331.4609,838.5654,327.4609" style="stroke:#181818;stroke-width:1;"/><line style="stroke:#181818;stroke-width:1;" x1="674.3413" x2="840.5654" y1="327.4609" y2="327.4609"/><text fill="#000000" font-family="sans-serif" font-size="13" lengthAdjust="spacing" textLength="148.2241" x="686.3413" y="322.7188">INSERT announcements</text></g><g class="message" data-entity-1="part6" data-entity-2="part5" id="msg7"><polygon fill="#181818" points="685.3413,352.7715,675.3413,356.7715,685.3413,360.7715,681.3413,356.7715" style="stroke:#181818;stroke-width:1;"/><line style="stroke:#181818;stroke-width:1;stroke-dasharray:2,2;" x1="679.3413" x2="845.5654" y1="356.7715" y2="356.7715"/><text fill="#000000" font-family="sans-serif" font-size="13" lengthAdjust="spacing" textLength="23.3213" x="748.7927" y="352.0293">row</text></g><g class="message" data-entity-1="part5" data-entity-2="part4" id="msg8"><polygon fill="#181818" points="522.8354,382.082,512.8354,386.082,522.8354,390.082,518.8354,386.082" style="stroke:#181818;stroke-width:1;"/><line style="stroke:#181818;stroke-width:1;stroke-dasharray:2,2;" x1="516.8354" x2="673.3413" y1="386.082" y2="386.082"/><text fill="#000000" font-family="sans-serif" font-size="13" lengthAdjust="spacing" textLength="138.5059" x="523.8354" y="381.3398">Announcement(id=...)</text></g><g class="message" data-entity-1="part4" data-entity-2="part7" id="msg9"><polygon fill="#181818" points="939.1055,411.3926,949.1055,415.3926,939.1055,419.3926,943.1055,415.3926" style="stroke:#181818;stroke-width:1;"/><line style="stroke:#181818;stroke-width:1;" x1="511.8354" x2="945.1055" y1="415.3926" y2="415.3926"/><text fill="#000000" font-family="sans-serif" font-size="13" lengthAdjust="spacing" textLength="189.1475" x="636.8967" y="410.6504">notify(announcement.created)</text></g><g class="message" data-entity-1="part7" data-entity-2="part8" id="msg10"><polygon fill="#181818" points="1167.9824,440.7031,1177.9824,444.7031,1167.9824,448.7031,1171.9824,444.7031" style="stroke:#181818;stroke-width:1;"/><line style="stroke:#181818;stroke-width:1;" x1="951.1055" x2="1173.9824" y1="444.7031" y2="444.7031"/><text fill="#000000" font-family="sans-serif" font-size="13" lengthAdjust="spacing" textLength="204.877" x="963.1055" y="439.9609">POST JSON (fan-out, concurrent)</text></g><g class="message" data-entity-1="part8" data-entity-2="part7" id="msg11"><polygon fill="#181818" points="962.1055,470.0137,952.1055,474.0137,962.1055,478.0137,958.1055,474.0137" style="stroke:#181818;stroke-width:1;"/><line style="stroke:#181818;stroke-width:1;stroke-dasharray:2,2;" x1="956.1055" x2="1178.9824" y1="474.0137" y2="474.0137"/><text fill="#000000" font-family="sans-serif" font-size="13" lengthAdjust="spacing" textLength="73.6265" x="1028.7307" y="469.2715">2xx (or fail)</text></g><path d="M516,487.0137 L516,573.0137 L733,573.0137 L733,497.0137 L723,487.0137 L516,487.0137" fill="#FEFFDD" style="stroke:#181818;stroke-width:0.5;"/><path d="M723,487.0137 L723,497.0137 L733,497.0137 L723,487.0137" fill="#FEFFDD" style="stroke:#181818;stroke-width:0.5;"/><text fill="#000000" font-family="sans-serif" font-size="13" lengthAdjust="spacing" textLength="164.4805" x="522" y="504.582">All-subscribers-fail raises</text><text fill="#000000" font-family="sans-serif" font-size="13" lengthAdjust="spacing" textLength="160.6909" x="522" y="519.8926">NotifierError; service logs</text><text fill="#000000" font-family="sans-serif" font-size="13" lengthAdjust="spacing" textLength="175.9126" x="522" y="535.2031">a warning and STILL returns</text><text fill="#000000" font-family="sans-serif" font-size="13" lengthAdjust="spacing" textLength="172.8467" x="522" y="550.5137">the created announcement.</text><text fill="#000000" font-family="sans-serif" font-size="13" lengthAdjust="spacing" textLength="196.1235" x="522" y="565.8242">Data change is not rolled back.</text><g class="message" data-entity-1="part4" data-entity-2="part2" id="msg12"><polygon fill="#181818" points="254.166,595.877,244.166,599.877,254.166,603.877,250.166,599.877" style="stroke:#181818;stroke-width:1;"/><line style="stroke:#181818;stroke-width:1;stroke-dasharray:2,2;" x1="248.166" x2="510.8354" y1="599.877" y2="599.877"/><text fill="#000000" font-family="sans-serif" font-size="13" lengthAdjust="spacing" textLength="95.437" x="329.7822" y="595.1348">Announcement</text></g><g class="message" data-entity-1="part2" data-entity-2="part1" id="msg13"><polygon fill="#181818" points="38.7524,640.498,28.7524,644.498,38.7524,648.498,34.7524,644.498" style="stroke:#181818;stroke-width:1;"/><line style="stroke:#181818;stroke-width:1;stroke-dasharray:2,2;" x1="32.7524" x2="242.166" y1="644.498" y2="644.498"/><text fill="#000000" font-family="sans-serif" font-size="13" lengthAdjust="spacing" textLength="77.7969" x="96.5608" y="624.4453">201 Created</text><text fill="#000000" font-family="sans-serif" font-size="13" lengthAdjust="spacing" textLength="130.2983" x="70.3101" y="639.7559">Announcement JSON</text></g><?plantuml-src VPF1Rjim38RlUWeY9mUeasROgSC6f4s7PUZIhYwmmpmKZCpOGXmfbUIcGJ5W3x4dt9ECift4tc4NGn9__QG-qbxvaY2Xfugq9FZpwpVStIOFCCQj6ZzFngYrgJYo8UsT46wjz1OjRi0Lc9cTqZcii7JKZRHcNyWvp6bQgbo3vFjaXK3fZOMhKl5UiDuhgRQeFGm-elFJktcghQbOEW1qS5yl-phBzihI8nVukAPzhPjMlkYhffswKvsGVLQIQcsxxikJft9Qoe8s-rJVqzOunMKstc4hClIuH4S0WplZV6uf-NfJXsUNVQTFtc-_qR8mPftgXV5gfTh773P2ch8awPNH3WQkMZffrPAi-_wZAP1FX6WGGVoXXG0N_sbCgWl2Z2qku2LcGSnWKhqqsVu2NZTD7yu0cPAnFqLhoDQ16nl_WpGQYZeGTvERDKJ4ZGQBYhzlpoV3Zb4BbNNI4dgAklolwgEXE8Y2BKCzYGDTTWjd79jTScI-IAxl7w0_VXo9JvUjsRLtUWLqCqSgUpyQZNgf3srWgGxBVTHDCcfAoeRYg0lkt9930pudjmk8LgXZVlqPIADbPIrVvIn15lTpl7bvWOX7VeMg70hEo0HLNdWmg-Ce0apBCkvCGXpK3Md7qOFTjRN6lkCVh7bCQV8GHTYXrU5FH9r1yZ2_kU6E-ihg4FK5jPYp7iqHnsRC7MI1EYTGBk1Wg3oR6InHhaU2s2zKVCBNdOWkwECeiA2TN7xw-GIQtcUfxgfhXdy1?></g></svg>